<?xml version="1.0" standalone="no"?>
<!DOCTYPE svg PUBLIC "-//W3C//DTD SVG 20010904//EN"
 "http://www.w3.org/TR/2001/REC-SVG-20010904/DTD/svg10.dtd">
<svg version="1.0" xmlns="http://www.w3.org/2000/svg"
 width="1024.000000pt" height="1024.000000pt" viewBox="0 0 1024.000000 1024.000000"
 preserveAspectRatio="xMidYMid meet">

<g transform="translate(0.000000,1024.000000) scale(0.100000,-0.100000)"
fill="#000000" stroke="none">
<path d="M6060 9610 c-454 -73 -801 -341 -986 -760 -48 -109 -114 -316 -114
-357 0 -43 -10 -20 -27 58 -70 338 -206 609 -388 769 -328 289 -798 355 -1223
172 -51 -22 -104 -48 -119 -57 l-27 -18 95 -27 c180 -50 382 -139 544 -238
295 -179 544 -413 704 -661 22 -35 41 -68 41 -72 0 -4 -49 26 -110 66 -191
127 -390 220 -580 269 -148 38 -243 50 -405 50 -170 0 -311 -23 -468 -76 -392
-131 -744 -455 -887 -818 -33 -83 -81 -271 -67 -263 7 3 55 34 107 68 353 228
677 359 1060 429 106 19 374 38 455 31 33 -2 103 -7 155 -10 154 -9 470 -67
470 -86 0 -3 -51 -9 -112 -13 -322 -20 -618 -117 -836 -273 -306 -220 -485
-492 -563 -858 -21 -98 -24 -134 -23 -335 1 -188 4 -237 20 -300 l19 -75 39
70 c171 306 479 667 771 900 255 205 582 371 870 444 43 11 80 19 82 17 1 -1
-23 -29 -53 -62 -91 -96 -259 -317 -380 -499 -636 -960 -852 -1974 -649 -3045
104 -546 321 -1058 649 -1534 182 -263 395 -496 656 -718 88 -75 354 -267 413
-298 26 -14 47 -27 47 -30 0 -3 -40 -30 -89 -61 l-88 -56 -89 61 c-544 373
-933 803 -1244 1376 -268 494 -440 1066 -489 1635 -16 175 -13 576 4 756 37
392 135 781 285 1139 53 126 181 390 247 507 19 35 34 66 32 68 -2 1 -51 -18
-109 -44 -58 -26 -194 -85 -302 -130 l-198 -84 -68 -91 c-317 -420 -465 -739
-556 -1196 -35 -179 -76 -563 -76 -722 0 -34 -2 -59 -5 -56 -9 9 -64 261 -95
437 -42 241 -58 355 -80 593 -22 228 -44 778 -32 790 6 6 331 98 345 98 3 0 3
71 0 158 -3 95 -1 188 6 236 6 44 9 81 7 83 -2 2 -100 -27 -217 -65 -118 -38
-299 -93 -403 -123 l-189 -54 6 -390 c9 -570 34 -886 98 -1273 145 -882 436
-1639 890 -2319 157 -235 262 -368 485 -618 354 -397 734 -726 1209 -1048 184
-124 450 -287 469 -287 30 0 363 208 606 379 575 404 1028 832 1381 1306 762
1024 1129 2289 1129 3896 l0 305 -97 23 c-169 41 -592 159 -733 205 -74 24
-136 43 -137 42 -1 -1 3 -33 9 -71 17 -111 5 -282 -30 -415 -30 -115 -106
-303 -141 -349 l-18 -24 -49 89 c-90 166 -189 321 -266 415 -35 43 -47 49
-160 89 -166 58 -540 208 -701 281 -210 96 -406 206 -636 357 -51 34 -99 62
-107 62 -7 0 -33 -26 -57 -57 -257 -337 -556 -951 -663 -1362 -13 -51 -24 -98
-24 -103 0 -5 28 13 63 40 34 27 98 70 142 96 145 83 430 172 590 182 80 6
103 3 205 -24 63 -17 383 -101 710 -187 327 -87 735 -193 905 -236 171 -44
328 -87 350 -96 98 -43 175 -152 175 -249 0 -66 -10 -94 -114 -309 l-86 -178
0 -246 c0 -281 -9 -345 -66 -460 -48 -98 -148 -200 -235 -241 -73 -34 -137
-45 -524 -92 -346 -42 -474 -43 -600 -5 -83 24 -206 65 -247 82 -16 6 -18 0
-18 -60 0 -143 -63 -295 -168 -407 -62 -66 -214 -185 -409 -322 -46 -31 -83
-61 -83 -66 0 -17 165 -206 279 -321 220 -219 520 -436 858 -620 35 -19 63
-36 62 -39 0 -6 -137 -124 -148 -128 -13 -4 -167 88 -332 200 -364 246 -658
521 -919 862 -47 60 -79 111 -73 113 18 6 495 336 566 392 121 96 157 174 157
347 0 69 -4 105 -12 111 -7 5 -105 38 -218 73 -113 34 -209 64 -215 66 -6 3
-10 -38 -10 -109 0 -110 -1 -114 -33 -162 -46 -71 -79 -98 -406 -326 -46 -32
-61 -38 -67 -27 -20 30 -106 242 -151 373 -95 271 -155 546 -183 845 -23 236
-16 666 14 887 42 307 126 635 232 901 138 348 424 816 679 1115 8 9 188 -62
301 -119 89 -45 185 -103 262 -161 31 -24 59 -43 61 -43 15 0 -47 219 -75 269
-11 18 -18 36 -15 39 8 7 108 -34 231 -97 349 -175 771 -543 1000 -871 78
-111 153 -227 189 -292 21 -38 41 -68 45 -68 4 0 15 24 24 53 70 227 68 514
-5 762 -110 376 -388 671 -774 824 -163 64 -405 121 -516 121 -113 0 56 47
272 76 231 30 553 8 819 -56 348 -84 702 -245 979 -446 56 -41 102 -72 102
-69 0 2 -9 52 -21 111 -54 279 -164 502 -341 689 -173 183 -405 316 -676 388
-113 29 -124 30 -342 31 -199 1 -237 -2 -330 -22 -221 -48 -462 -150 -647
-271 -50 -34 -94 -61 -97 -61 -24 0 188 238 329 370 290 272 629 477 976 589
90 30 173 57 183 61 34 12 -175 107 -312 142 -105 27 -136 30 -297 33 -99 2
-205 0 -235 -5z"/>
<path d="M6725 5409 c-640 -130 -657 -136 -778 -248 -85 -80 -134 -154 -170
-260 -39 -112 -42 -251 -8 -350 45 -130 148 -247 268 -304 65 -30 74 -32 189
-32 119 0 120 0 200 39 105 52 227 171 272 267 82 172 82 369 2 531 -17 33
-41 74 -55 90 -14 16 -25 33 -25 37 0 6 241 52 247 47 9 -8 24 -453 21 -586
-4 -136 -9 -176 -27 -230 -42 -123 -126 -235 -223 -300 l-60 -40 35 0 c75 0
194 22 247 46 71 32 142 108 172 182 20 52 23 78 28 317 l5 260 49 120 c63
157 116 316 116 349 0 44 -31 106 -61 121 -15 8 -45 15 -66 14 -21 0 -191 -32
-378 -70z m-322 -314 c137 -57 215 -240 173 -403 -21 -82 -54 -138 -119 -199
-133 -125 -296 -135 -418 -25 -145 130 -150 352 -13 519 95 116 252 161 377
108z"/>
<path d="M6207 4928 c-73 -20 -127 -100 -127 -190 0 -55 38 -116 90 -144 55
-30 97 -30 155 -3 92 43 129 150 86 244 -23 50 -45 70 -100 90 -49 17 -51 17
-104 3z"/>
<path d="M4364 5063 c-5 -21 -8 -121 -8 -223 l-1 -185 36 -65 c22 -41 55 -81
87 -107 57 -46 15 -32 637 -223 182 -56 409 -127 505 -157 217 -69 223 -70
185 -46 -50 33 -151 148 -179 205 -40 83 -56 175 -56 341 0 81 -2 147 -5 147
-6 0 -550 159 -735 215 -221 67 -451 135 -455 135 -2 0 -7 -17 -11 -37z"/>
</g>
</svg>
